<?xml version="1.0" encoding="UTF-8" standalone="no"?>
<!DOCTYPE svg PUBLIC "-//W3C//DTD SVG 1.1//EN"
 "http://www.w3.org/Graphics/SVG/1.1/DTD/svg11.dtd">
<!-- Generated by graphviz version 2.40.1 (20161225.0304)
 -->
<!-- Title: aprendendo_postgres Pages: 1 -->
<svg width="337pt" height="579pt"
 viewBox="0.00 0.00 337.00 579.00" xmlns="http://www.w3.org/2000/svg" xmlns:xlink="http://www.w3.org/1999/xlink">
<g id="graph0" class="graph" transform="scale(1 1) rotate(0) translate(4 575)">
<title>aprendendo_postgres</title>
<polygon fill="#ffffff" stroke="transparent" points="-4,4 -4,-575 333,-575 333,4 -4,4"/>
<!-- public.enade -->
<g id="node1" class="node">
<title>public.enade</title>
<polygon fill="#efefef" stroke="transparent" points="43.5,-492.5 43.5,-527.5 286.5,-527.5 286.5,-492.5 43.5,-492.5"/>
<polygon fill="none" stroke="#000000" points="43.5,-492.5 43.5,-527.5 286.5,-527.5 286.5,-492.5 43.5,-492.5"/>
<text text-anchor="start" x="50.1959" y="-505.3" font-family="Arial Bold" font-size="18.00" fill="#000000">public.enade</text>
<text text-anchor="start" x="152.2361" y="-505.3" font-family="Arial" font-size="14.00" fill="#000000">    </text>
<text text-anchor="start" x="186.4409" y="-505.3" font-family="Arial" font-size="14.00" fill="#666666">[BASE TABLE]</text>
<polygon fill="none" stroke="#000000" points="43.5,-462.5 43.5,-492.5 286.5,-492.5 286.5,-462.5 43.5,-462.5"/>
<text text-anchor="start" x="50.5" y="-473.9" font-family="Arial" font-size="14.00" fill="#000000">ano    </text>
<text text-anchor="start" x="108.0526" y="-473.9" font-family="Arial" font-size="14.00" fill="#666666">[smallint]</text>
<polygon fill="none" stroke="#000000" points="43.5,-432.5 43.5,-462.5 286.5,-462.5 286.5,-432.5 43.5,-432.5"/>
<text text-anchor="start" x="50.5" y="-443.9" font-family="Arial" font-size="14.00" fill="#000000">area_avaliacao    </text>
<text text-anchor="start" x="179.622" y="-443.9" font-family="Arial" font-size="14.00" fill="#666666">[varchar(255)]</text>
<polygon fill="none" stroke="#000000" points="43.5,-402.5 43.5,-432.5 286.5,-432.5 286.5,-402.5 43.5,-402.5"/>
<text text-anchor="start" x="50.5" y="-413.9" font-family="Arial" font-size="14.00" fill="#000000">ies    </text>
<text text-anchor="start" x="102.594" y="-413.9" font-family="Arial" font-size="14.00" fill="#666666">[varchar(255)]</text>
<polygon fill="none" stroke="#000000" points="43.5,-372.5 43.5,-402.5 286.5,-402.5 286.5,-372.5 43.5,-372.5"/>
<text text-anchor="start" x="50.5" y="-383.9" font-family="Arial" font-size="14.00" fill="#000000">org_acad    </text>
<text text-anchor="start" x="143.061" y="-383.9" font-family="Arial" font-size="14.00" fill="#666666">[varchar(255)]</text>
<polygon fill="none" stroke="#000000" points="43.5,-342.5 43.5,-372.5 286.5,-372.5 286.5,-342.5 43.5,-342.5"/>
<text text-anchor="start" x="50.5" y="-353.9" font-family="Arial" font-size="14.00" fill="#000000">cat_acad    </text>
<text text-anchor="start" x="141.5084" y="-353.9" font-family="Arial" font-size="14.00" fill="#666666">[varchar(255)]</text>
<polygon fill="none" stroke="#000000" points="43.5,-312.5 43.5,-342.5 286.5,-342.5 286.5,-312.5 43.5,-312.5"/>
<text text-anchor="start" x="50.5" y="-323.9" font-family="Arial" font-size="14.00" fill="#000000">mod_ens    </text>
<text text-anchor="start" x="142.2784" y="-323.9" font-family="Arial" font-size="14.00" fill="#666666">[varchar(255)]</text>
<polygon fill="none" stroke="#000000" points="43.5,-282.5 43.5,-312.5 286.5,-312.5 286.5,-282.5 43.5,-282.5"/>
<text text-anchor="start" x="50.5" y="-293.9" font-family="Arial" font-size="14.00" fill="#000000">municipio_curso    </text>
<text text-anchor="start" x="185.824" y="-293.9" font-family="Arial" font-size="14.00" fill="#666666">[varchar(255)]</text>
<polygon fill="none" stroke="#000000" points="43.5,-252.5 43.5,-282.5 286.5,-282.5 286.5,-252.5 43.5,-252.5"/>
<text text-anchor="start" x="50.5" y="-263.9" font-family="Arial" font-size="14.00" fill="#000000">sigla_uf    </text>
<text text-anchor="start" x="132.939" y="-263.9" font-family="Arial" font-size="14.00" fill="#666666">[varchar(255)]</text>
<polygon fill="none" stroke="#000000" points="43.5,-222.5 43.5,-252.5 286.5,-252.5 286.5,-222.5 43.5,-222.5"/>
<text text-anchor="start" x="50.5" y="-233.9" font-family="Arial" font-size="14.00" fill="#000000">num_conc_insc    </text>
<text text-anchor="start" x="181.9502" y="-233.9" font-family="Arial" font-size="14.00" fill="#666666">[smallint]</text>
<polygon fill="none" stroke="#000000" points="43.5,-192.5 43.5,-222.5 286.5,-222.5 286.5,-192.5 43.5,-192.5"/>
<text text-anchor="start" x="50.5" y="-203.9" font-family="Arial" font-size="14.00" fill="#000000">num_conc_part    </text>
<text text-anchor="start" x="181.1774" y="-203.9" font-family="Arial" font-size="14.00" fill="#666666">[smallint]</text>
<polygon fill="none" stroke="#000000" points="43.5,-162.5 43.5,-192.5 286.5,-192.5 286.5,-162.5 43.5,-162.5"/>
<text text-anchor="start" x="50.5" y="-173.9" font-family="Arial" font-size="14.00" fill="#000000">nota_bruta_fg    </text>
<text text-anchor="start" x="171.0806" y="-173.9" font-family="Arial" font-size="14.00" fill="#666666">[real]</text>
<polygon fill="none" stroke="#000000" points="43.5,-132.5 43.5,-162.5 286.5,-162.5 286.5,-132.5 43.5,-132.5"/>
<text text-anchor="start" x="50.5" y="-143.9" font-family="Arial" font-size="14.00" fill="#000000">nota_padronizada_fg    </text>
<text text-anchor="start" x="216.2096" y="-143.9" font-family="Arial" font-size="14.00" fill="#666666">[real]</text>
<polygon fill="none" stroke="#000000" points="43.5,-102.5 43.5,-132.5 286.5,-132.5 286.5,-102.5 43.5,-102.5"/>
<text text-anchor="start" x="50.5" y="-113.9" font-family="Arial" font-size="14.00" fill="#000000">nota_bruta_ce    </text>
<text text-anchor="start" x="174.19" y="-113.9" font-family="Arial" font-size="14.00" fill="#666666">[real]</text>
<polygon fill="none" stroke="#000000" points="43.5,-72.5 43.5,-102.5 286.5,-102.5 286.5,-72.5 43.5,-72.5"/>
<text text-anchor="start" x="50.5" y="-83.9" font-family="Arial" font-size="14.00" fill="#000000">conc_enade_cont    </text>
<text text-anchor="start" x="195.204" y="-83.9" font-family="Arial" font-size="14.00" fill="#666666">[real]</text>
<polygon fill="none" stroke="#000000" points="43.5,-42.5 43.5,-72.5 286.5,-72.5 286.5,-42.5 43.5,-42.5"/>
<text text-anchor="start" x="50.5" y="-53.9" font-family="Arial" font-size="14.00" fill="#000000">conc_enade_faixa    </text>
<text text-anchor="start" x="198.3106" y="-53.9" font-family="Arial" font-size="14.00" fill="#666666">[smallint]</text>
</g>
</g>
</svg>
